HIERARCHY
ROOT Hips
{
  OFFSET 0.000000 98.090000 -3.080000
  CHANNELS 6 Xposition Yposition Zposition Zrotation Xrotation Yrotation
  JOINT RightUpLeg
  {
    OFFSET -9.030000 -4.720000 5.010000
    CHANNELS 3 Zrotation Xrotation Yrotation
    JOINT RightLeg
    {
      OFFSET 0.000000 -39.500000 0.000000
      CHANNELS 1 Xrotation
      JOINT RightFoot
      {
        OFFSET 0.000000 -39.830000 0.000000
        CHANNELS 3 Zrotation Xrotation Yrotation
        JOINT RightToeBase
        {
          OFFSET 0.000000 -5.750000 6.920000
          CHANNELS 1 Xrotation
          End Site
          {
            OFFSET 0.000000 0.000000 0.000000
          }
        }
        JOINT RightFootPinky
        {
          OFFSET -4.460000 -5.340000 4.940000
          CHANNELS 1 Xrotation
          End Site
          {
            OFFSET 0.000000 0.000000 0.000000
          }
        }
      }
    }
  }
  JOINT LeftUpLeg
  {
    OFFSET 9.030000 -4.720000 5.010000
    CHANNELS 3 Zrotation Xrotation Yrotation
    JOINT LeftLeg
    {
      OFFSET 0.000000 -39.500000 0.000000
      CHANNELS 1 Xrotation
      JOINT LeftFoot
      {
        OFFSET 0.000000 -39.830000 0.000000
        CHANNELS 3 Zrotation Xrotation Yrotation
        JOINT LeftToeBase
        {
          OFFSET 0.000000 -5.750000 6.920000
          CHANNELS 1 Xrotation
          End Site
          {
            OFFSET 0.000000 0.000000 0.000000
          }
        }
        JOINT LeftFootPinky
        {
          OFFSET 4.460000 -5.340000 4.940000
          CHANNELS 1 Xrotation
          End Site
          {
            OFFSET 0.000000 0.000000 0.000000
          }
        }
      }
    }
  }
  JOINT Spine
  {
    OFFSET 0.000000 8.660000 -1.260000
    CHANNELS 3 Zrotation Xrotation Yrotation
    JOINT Spine1
    {
      OFFSET 0.000000 10.860000 -0.640000
      CHANNELS 3 Zrotation Xrotation Yrotation
      JOINT Neck
      {
        OFFSET 0.000000 30.830000 0.620000
        CHANNELS 3 Zrotation Xrotation Yrotation
        JOINT Head
        {
          OFFSET 0.000000 8.080000 3.500000
          CHANNELS 3 Zrotation Xrotation Yrotation
          End Site
          {
            OFFSET 0.000000 0.000000 0.000000
          }
        }
      }
      JOINT RightShoulder
      {
        OFFSET -1.470000 7.350000 0.550000
        CHANNELS 3 Zrotation Xrotation Yrotation
        JOINT RightArm
        {
          OFFSET -18.480000 -1.850000 0.280000
          CHANNELS 3 Zrotation Xrotation Yrotation
          JOINT RightForeArm
          {
            OFFSET -32.390000 0.000000 0.000000
            CHANNELS 1 Xrotation
            JOINT RightHand
            {
              OFFSET -28.680000 0.000000 0.000000
              CHANNELS 3 Zrotation Xrotation Yrotation
              End Site
              {
                OFFSET 0.000000 0.000000 0.000000
              }
            }
          }
        }
      }
      JOINT LeftShoulder
      {
        OFFSET 1.470000 7.350000 0.550000
        CHANNELS 3 Zrotation Xrotation Yrotation
        JOINT LeftArm
        {
          OFFSET 18.480000 -1.850000 0.280000
          CHANNELS 3 Zrotation Xrotation Yrotation
          JOINT LeftForeArm
          {
            OFFSET 32.390000 0.000000 0.000000
            CHANNELS 1 Xrotation
            JOINT LeftHand
            {
              OFFSET 28.680000 0.000000 0.000000
              CHANNELS 3 Zrotation Xrotation Yrotation
              End Site
              {
                OFFSET 0.000000 0.000000 0.000000
              }
            }
          }
        }
      }
    }
  }
}
MOTION
Frames:	18
Frame Time:	0.03333333
95.700911 98.458421 -77.258943 3.071913 0.600455 -50.732655 1.780591 -13.089618 2.169707 27.942972 -5.334778 -25.019383 -10.353427 -0.012478 0.020918 -7.160063 -11.077672 -3.191178 23.615237 3.961874 -22.020366 7.807619 0.032137 -0.001647 -1.724594 1.798767 1.719711 -0.464783 -0.622268 2.204713 -5.808240 -10.156264 -2.642088 0.057719 0.005590 0.003979 -0.035681 0.040922 0.000722 86.881105 20.588111 -2.282408 19.219438 -0.024454 4.814503 -0.001578 0.035511 -0.001797 0.018697 -85.695011 33.128775 4.568623 -23.518715 0.014512 -5.449151 -0.030647
95.671000 98.470574 -77.237741 3.053289 0.591165 -50.667861 1.782252 -13.070146 2.178074 27.908809 -5.333870 -24.984365 -10.426304 -0.010935 0.017814 -7.173034 -11.057270 -3.196271 23.619776 3.948941 -22.032206 7.789653 0.030751 -0.005572 -1.731673 1.862317 1.721121 -0.464613 -0.622599 2.203941 -5.805287 -10.129159 -2.633075 0.054035 0.005271 0.002204 -0.031332 0.037888 0.003287 86.889915 20.637617 -2.321210 19.228854 -0.022538 4.765412 0.001092 0.033286 -0.001451 0.014165 -85.703933 33.071932 4.607361 -23.525430 0.011083 -5.395127 -0.028570
95.647332 98.471133 -77.141094 3.047060 0.628524 -50.623002 1.799097 -13.071765 2.152033 27.886714 -5.302223 -24.973028 -10.407358 -0.010694 0.018121 -7.148270 -11.120855 -3.218642 23.726618 3.950781 -22.074258 7.774919 0.028718 -0.006203 -1.720542 1.867488 1.706541 -0.448633 -0.632205 2.187327 -5.774591 -10.049578 -2.604842 0.051004 0.005201 0.001838 -0.031308 0.038523 0.003381 86.876156 20.677917 -2.337871 19.230990 -0.022599 4.729571 0.000337 0.033603 -0.002477 0.013558 -85.703338 32.996304 4.650167 -23.568687 0.008651 -5.316859 -0.028805
95.681624 98.473194 -77.110961 3.032008 0.751853 -50.608529 1.964118 -13.081623 2.290987 27.860580 -5.351304 -25.020046 -10.489013 -0.010909 0.019473 -7.014026 -11.260007 -3.189243 23.821118 3.924942 -22.056983 7.716428 0.028599 -0.004638 -1.632891 1.914999 1.707002 -0.427417 -0.648006 2.195180 -5.726162 -10.079684 -2.616145 0.051225 0.005236 0.002030 -0.033018 0.040059 0.002535 86.856770 20.480214 -2.266339 19.170267 -0.023262 4.836649 -0.001153 0.034465 -0.002883 0.015118 -85.686208 33.013024 4.674448 -23.608800 0.008200 -5.334382 -0.029955
95.705822 98.456583 -77.076318 2.959962 0.914519 -50.751125 2.234587 -13.058272 2.491499 27.834418 -5.419024 -24.993117 -10.700852 -0.013121 0.024078 -6.799806 -11.409155 -3.175333 23.902747 3.918868 -22.080234 7.682119 0.028985 0.000314 -1.442228 2.036703 1.735334 -0.399454 -0.679885 2.241312 -5.720065 -10.107442 -2.631895 0.053901 0.005460 0.003307 -0.037680 0.044872 0.000009 86.873159 20.366844 -2.237719 19.138460 -0.026363 4.827958 -0.004309 0.038013 -0.003893 0.019961 -85.641284 33.136813 4.687630 -23.658315 0.009317 -5.422757 -0.034055
95.735986 98.434043 -77.050517 2.939107 0.981821 -50.909732 2.309993 -13.042076 2.536838 27.819801 -5.444048 -24.878278 -10.818275 -0.015620 0.028682 -6.734901 -11.470560 -3.193772 23.958564 3.957113 -22.120926 7.744437 0.030315 0.005328 -1.366130 2.086383 1.750472 -0.366633 -0.701930 2.262880 -5.783160 -10.041516 -2.628233 0.058274 0.005849 0.005115 -0.042712 0.049567 -0.002827 86.865520 20.539588 -2.318931 19.180962 -0.029557 4.576465 -0.007442 0.041561 -0.004547 0.025259 -85.686736 33.188212 4.721510 -23.673912 0.011345 -5.451875 -0.037822
95.773537 98.421926 -77.021676 2.970428 0.931935 -50.970406 2.216525 -13.016427 2.502335 27.806927 -5.443085 -24.817004 -10.748894 -0.017901 0.033400 -6.807939 -11.483812 -3.181971 23.983344 3.965676 -22.143684 7.750449 0.030000 0.009796 -1.444308 2.082775 1.740086 -0.344836 -0.712191 2.247947 -5.856198 -9.982276 -2.628436 0.061265 0.006283 0.006494 -0.048328 0.054292 -0.005166 86.841923 20.639483 -2.380563 19.191557 -0.032376 4.441872 -0.010077 0.045109 -0.005872 0.030596 -85.777500 33.172275 4.796043 -23.665845 0.014661 -5.510225 -0.040964
95.765703 98.428248 -76.975140 2.968936 0.913639 -50.930839 2.178968 -12.977756 2.472159 27.797307 -5.434355 -24.843283 -10.654990 -0.019394 0.036258 -6.841453 -11.478861 -3.188799 23.954592 3.965594 -22.114248 7.778935 0.027707 0.011324 -1.476959 2.088788 1.720527 -0.325279 -0.712186 2.222129 -5.849238 -9.973103 -2.638772 0.061038 0.006473 0.006665 -0.050864 0.056762 -0.005700 86.831507 20.633539 -2.372714 19.152549 -0.033836 4.516855 -0.010822 0.047395 -0.007520 0.032713 -85.834943 33.168988 4.852243 -23.670675 0.016505 -5.521984 -0.042601
95.775783 98.429739 -76.951666 2.959569 0.942924 -50.863454 2.179618 -12.959454 2.394043 27.807432 -5.404738 -24.929213 -10.487238 -0.019671 0.036902 -6.834824 -11.447060 -3.217309 23.887316 3.960622 -22.107565 7.775436 0.027621 0.011889 -1.429827 2.089040 1.710791 -0.320357 -0.697452 2.210686 -5.857214 -9.998906 -2.666450 0.062575 0.006547 0.007315 -0.052181 0.057132 -0.006604 86.815378 20.669099 -2.369119 19.151955 -0.034233 4.562096 -0.011763 0.047681 -0.007976 0.033821 -85.858714 33.276416 4.865354 -23.660359 0.016899 -5.539191 -0.042844
95.750909 98.427211 -76.896277 2.998059 0.925965 -50.752983 2.069253 -12.957797 2.249969 27.800148 -5.331913 -24.974564 -10.302842 -0.018972 0.035286 -6.939062 -11.390697 -3.299061 23.827576 3.964213 -22.169828 7.769534 0.027670 0.010147 -1.451376 2.033116 1.692560 -0.330306 -0.670890 2.182851 -5.881780 -10.000289 -2.661553 0.061850 0.006448 0.007201 -0.050258 0.055581 -0.006253 86.776130 20.637249 -2.341408 19.149361 -0.033572 4.694804 -0.011177 0.046449 -0.008074 0.031997 -85.865892 33.318704 4.840162 -23.633373 0.014077 -5.527802 -0.041933
95.758609 98.415406 -76.913526 3.053763 0.797151 -50.629663 1.830403 -12.895146 2.060644 27.760962 -5.247633 -24.904190 -10.210531 -0.017178 0.030361 -7.149100 -11.235942 -3.345918 23.768445 3.986501 -22.226112 7.797179 0.028912 0.005151 -1.601426 1.989901 1.675907 -0.348051 -0.631183 2.149872 -5.930760 -9.971693 -2.629107 0.059995 0.006242 0.006140 -0.044058 0.050557 -0.003843 86.728626 20.543080 -2.331635 19.116527 -0.030819 4.840035 -0.007786 0.042930 -0.006567 0.026395 -85.963188 33.336928 4.877824 -23.625361 0.011672 -5.561697 -0.038412
95.842720 98.408337 -77.040205 3.087315 0.745172 -50.527583 1.726252 -12.840203 1.995161 27.702748 -5.213773 -24.857792 -10.258840 -0.014510 0.023686 -7.258015 -11.131370 -3.361259 23.702813 4.010837 -22.258417 7.857700 0.029702 -0.000805 -1.655309 1.987899 1.672582 -0.357167 -0.608617 2.138520 -5.930110 -9.945789 -2.605640 0.056318 0.005487 0.004715 -0.035584 0.043499 -0.000977 86.705601 20.470458 -2.368048 19.085747 -0.027347 4.958603 -0.003761 0.038082 -0.003905 0.018649 -86.104881 33.339283 4.937444 -23.619536 0.006261 -5.604859 -0.034114
95.979650 98.429268 -77.182580 3.103397 0.813988 -50.521010 1.766650 -12.862240 1.949158 27.599583 -5.207510 -24.826935 -10.346581 -0.010156 0.015050 -7.244275 -11.143629 -3.359215 23.673301 4.030757 -22.300104 7.926337 0.031155 -0.008921 -1.578656 1.980651 1.683737 -0.362065 -0.607118 2.155920 -5.884889 -9.937448 -2.621748 0.051832 0.004760 0.001100 -0.025324 0.034930 0.004681 86.703791 20.357525 -2.405046 19.039473 -0.021573 5.086374 0.002988 0.031591 -0.000022 0.008735 -86.205154 33.487125 4.974857 -23.575200 0.000975 -5.717203 -0.027667
96.074214 98.449118 -77.229745 3.095480 0.948929 -50.642192 1.885255 -12.892408 1.928982 27.494262 -5.233553 -24.787439 -10.400683 -0.008020 0.011741 -7.131490 -11.270867 -3.357736 23.759517 4.062079 -22.366526 7.974348 0.033380 -0.011628 -1.430185 1.908678 1.718117 -0.352054 -0.605372 2.215005 -5.890153 -9.925463 -2.672732 0.051923 0.004762 -0.000505 -0.022785 0.032000 0.007304 86.704356 20.185262 -2.425185 19.038749 -0.018511 5.237222 0.006262 0.028965 0.002314 0.006094 -86.207345 33.812195 4.964969 -23.575191 0.002317 -5.915882 -0.024401
96.042472 98.467992 -77.138255 3.021010 1.107841 -50.885706 2.067748 -12.861008 1.947235 27.368154 -5.259986 -24.726352 -10.406610 -0.007862 0.012508 -6.937118 -11.439023 -3.339421 23.936590 4.050862 -22.483952 7.827158 0.035467 -0.009847 -1.223911 1.862018 1.747520 -0.331406 -0.594396 2.267131 -5.892640 -9.943386 -2.695955 0.054476 0.005090 -0.000036 -0.025515 0.033465 0.006661 86.725225 19.933142 -2.353216 18.992417 -0.018474 5.460799 0.005776 0.029271 0.003032 0.008672 -86.126274 33.988180 4.916552 -23.600292 0.007580 -5.983169 -0.024477
95.920516 98.464142 -76.972317 2.834884 1.433820 -51.173988 2.487875 -12.833905 1.964440 27.295461 -5.275672 -24.589576 -10.455971 -0.011225 0.020906 -6.504002 -11.684458 -3.306153 24.163589 4.017201 -22.512454 7.656230 0.035146 -0.001276 -0.832825 1.842958 1.732977 -0.241486 -0.593810 2.265624 -5.859395 -9.986463 -2.657764 0.059494 0.006006 0.003007 -0.037327 0.042969 0.001398 86.704983 19.852286 -2.241320 18.984867 -0.023536 5.558263 -0.001214 0.035206 -0.000164 0.019518 -85.996301 33.900310 4.841489 -23.652756 0.015772 -5.899539 -0.030444
95.823341 98.431150 -76.868527 2.692333 1.807808 -51.401128 2.925236 -12.858522 1.972382 27.304055 -5.244453 -24.390502 -10.495618 -0.018461 0.035305 -6.057272 -11.986032 -3.318661 24.375238 4.007027 -22.525559 7.599866 0.027893 0.012123 -0.454966 1.800835 1.710868 -0.135503 -0.623735 2.251941 -5.839035 -9.950721 -2.614986 0.060492 0.006416 0.008608 -0.053478 0.056896 -0.008213 86.641327 19.888325 -2.117860 18.985885 -0.034271 5.523264 -0.013692 0.046053 -0.008481 0.034757 -85.870917 33.831619 4.767619 -23.712773 0.019063 -5.900778 -0.042656
95.772598 98.415253 -76.869936 2.723402 1.888357 -51.414051 2.974333 -12.880361 1.978517 27.268238 -5.176108 -24.326881 -10.460800 -0.022214 0.040335 -6.004283 -12.152627 -3.320323 24.474486 3.985463 -22.518705 7.578447 0.019144 0.016633 -0.449547 1.816817 1.714867 -0.110495 -0.654379 2.254355 -5.831023 -9.906701 -2.609948 0.053889 0.005236 0.011060 -0.055807 0.059926 -0.012804 86.646908 19.938791 -2.114152 19.047526 -0.040540 5.370591 -0.019849 0.050117 -0.013838 0.037505 -85.883405 33.804045 4.746435 -23.711066 0.011439 -5.900455 -0.049620
